<?xml version="1.0" encoding="UTF-8"?>
<svg width="17px" height="19px" viewBox="0 0 17 19" version="1.1" xmlns="http://www.w3.org/2000/svg" xmlns:xlink="http://www.w3.org/1999/xlink">
    <!-- Generator: Sketch 59 (86127) - https://sketch.com -->
    <title>jam-search</title>
    <desc>Created with Sketch.</desc>
    <g id="Page-1" stroke="none" stroke-width="1" fill="none" fill-rule="evenodd">
        <g id="Nav-Bar-White-active-search" transform="translate(-377.000000, -34.000000)" fill-rule="nonzero">
            <g id="Nav-Bar">
                <g id="Group-3" transform="translate(364.000000, 23.000000)">
                    <g id="Group" transform="translate(11.000000, 7.000000)">
                        <g id="jam-search" transform="translate(0.000000, 1.743631)">
                            <g id="Icon" transform="translate(1.846154, 2.057143)" fill="#F4F4F4">
                                <path d="M7.57692308,14.4428571 C10.550764,14.4428571 12.9615385,11.7565656 12.9615385,8.44285714 C12.9615385,5.12914864 10.550764,2.44285714 7.57692308,2.44285714 C4.60308212,2.44285714 2.19230769,5.12914864 2.19230769,8.44285714 C2.19230769,11.7565656 4.60308212,14.4428571 7.57692308,14.4428571 Z M13.2487179,13.3488571 L16.4615385,16.9288571 C16.694668,17.1801167 16.7879909,17.5519909 16.705639,17.9015517 C16.6232872,18.2511126 16.3780762,18.5239615 16.0642516,18.6152304 C15.7504269,18.7064994 15.4168261,18.6019851 15.1916667,18.3418571 L11.9788462,14.7618571 C8.98453193,17.3518257 4.69915888,16.9017253 2.19190457,13.7339173 C-0.315349742,10.5661093 -0.180527984,5.77216648 2.49981071,2.78550336 C5.1801494,-0.201159753 9.48240576,-0.351389713 12.3253104,2.44240795 C15.1682151,5.23620561 15.5721512,10.0113356 13.2478205,13.3478571 L13.2487179,13.3488571 Z" id="Icon-Shape"></path>
                            </g>
                            <rect id="ViewBox" x="0" y="0" width="21.5384615" height="24"></rect>
                        </g>
                    </g>
                </g>
            </g>
        </g>
    </g>
</svg>