<?xml version="1.0" encoding="UTF-8"?>
<svg width="186px" height="48px" viewBox="0 0 186 48" version="1.1" xmlns="http://www.w3.org/2000/svg" xmlns:xlink="http://www.w3.org/1999/xlink">
    <!-- Generator: Sketch 59 (86127) - https://sketch.com -->
    <title>Logo</title>
    <desc>Created with Sketch.</desc>
    <defs>
        <polygon id="path-1" points="0.110562232 0.10432 20.2991459 0.10432 20.2991459 24.8 0.110562232 24.8"></polygon>
        <polygon id="path-3" points="0 47.68088 185.877064 47.68088 185.877064 8e-05 0 8e-05"></polygon>
    </defs>
    <g id="Page-1" stroke="none" stroke-width="1" fill="none" fill-rule="evenodd">
        <g id="Nav-Bar-White-active-search" transform="translate(-120.000000, -15.000000)">
            <g id="Logo" transform="translate(120.000000, 15.000000)">
                <g id="Group-19">
                    <path d="M4.62206009,29.56016 L9.48280687,29.56016 C10.8406867,29.56016 12.0341202,29.39616 13.0639056,29.06816 C14.093691,28.74176 14.9558369,28.27696 15.6495451,27.67696 C16.3448498,27.07696 16.866927,26.36096 17.21897,25.52976 C17.5702146,24.69776 17.7458369,23.77696 17.7458369,22.76896 C17.7458369,20.72176 17.0712876,19.17696 15.7221888,18.13776 C14.3730901,17.09696 12.3654077,16.57696 9.69914163,16.57696 L4.62206009,16.57696 L4.62206009,29.56016 Z M4.62206009,32.94416 L4.62206009,47.29616 L0,47.29616 L0,12.90496 L9.69914163,12.90496 C11.8704721,12.90496 13.7464378,13.12496 15.3270386,13.56576 C16.9076395,14.00576 18.2120343,14.64176 19.242618,15.47376 C20.2716052,16.30576 21.0347639,17.30976 21.5304979,18.48496 C22.0246352,19.66096 22.272103,20.97696 22.272103,22.43296 C22.272103,23.64896 22.080515,24.78496 21.6973391,25.84176 C21.3141631,26.89696 20.7593562,27.84496 20.0337167,28.68496 C19.307279,29.52416 18.419588,30.24176 17.3754335,30.83216 C16.3288841,31.42416 15.1434335,31.87296 13.8182833,32.17696 C14.3930472,32.51296 14.9039485,33.00096 15.3501888,33.64176 L25.3606609,47.29616 L21.2423176,47.29616 C20.3961373,47.29616 19.7726781,46.96976 19.3735365,46.31376 L10.4654936,34.02416 C10.1940773,33.64176 9.89791416,33.36496 9.57939914,33.19616 C9.26088412,33.02896 8.78111588,32.94416 8.14248927,32.94416 L4.62206009,32.94416 Z" id="Fill-1" fill="#C03F26"></path>
                    <path d="M39.3949597,25.74536 C37.3353888,25.74536 35.7156721,26.34136 34.5334146,27.53256 C33.3519554,28.72456 32.6175348,30.37736 32.3301528,32.48856 L45.5257751,32.48856 C45.5257751,31.49576 45.390067,30.58856 45.1186506,29.76456 C44.8472343,28.94136 44.4480927,28.22856 43.9212258,27.62936 C43.3943588,27.02936 42.7517408,26.56536 41.99417,26.23736 C41.2350026,25.90936 40.3688652,25.74536 39.3949597,25.74536 M39.2999639,22.60136 C40.7512429,22.60136 42.0931571,22.84536 43.3225133,23.33256 C44.5518695,23.82216 45.6135863,24.52536 46.5076635,25.44536 C47.4009425,26.36536 48.1002386,27.50136 48.6031571,28.85256 C49.1060755,30.20536 49.3575348,31.74456 49.3575348,33.47256 C49.3575348,34.14456 49.2864876,34.59336 49.1427966,34.81656 C48.997509,35.04136 48.7260927,35.15256 48.3277494,35.15256 L32.1872601,35.15256 C32.2183931,36.68856 32.4259468,38.02456 32.8091227,39.16056 C33.1922987,40.29736 33.7199639,41.24456 34.3897236,42.00376 C35.0602815,42.76456 35.8585648,43.33336 36.7845734,43.70856 C37.7113803,44.08536 38.7483502,44.27256 39.8986764,44.27256 C40.9675777,44.27256 41.8895948,44.14936 42.6647279,43.90056 C43.4374661,43.65256 44.1048309,43.38536 44.6636292,43.09576 C45.2232258,42.80856 45.6894232,42.54136 46.0646163,42.29336 C46.4390112,42.04456 46.7631142,41.92136 47.0345305,41.92136 C47.3857751,41.92136 47.6571914,42.05736 47.8487794,42.32856 L49.0462043,43.88856 C48.5193373,44.52856 47.8894918,45.08536 47.1550712,45.55736 C46.4206506,46.02936 45.6335433,46.41656 44.7961442,46.72136 C43.9571485,47.02456 43.0902129,47.25256 42.1969339,47.40456 C41.3036549,47.55736 40.4159639,47.63256 39.5386506,47.63256 C37.8622558,47.63256 36.3175777,47.34776 34.9046163,46.78056 C33.4916549,46.21336 32.2702815,45.38056 31.2404961,44.28536 C30.2107107,43.18856 29.4084361,41.83336 28.8336721,40.21656 C28.2597064,38.60056 27.9715262,36.74456 27.9715262,34.64936 C27.9715262,32.95256 28.2317665,31.36936 28.7498524,29.89576 C29.2679382,28.42456 30.0151313,27.14936 30.9898352,26.06856 C31.9621442,24.98936 33.1523845,24.14136 34.5573631,23.52536 C35.9615433,22.90936 37.5429425,22.60136 39.2999639,22.60136" id="Fill-3" fill="#C03F26"></path>
                    <path d="M55.7519433,47.29648 L55.7519433,26.63248 L53.0689133,26.32128 C52.7336343,26.24128 52.4590249,26.11728 52.2426901,25.94928 C52.0271536,25.78128 51.9193854,25.53728 51.9193854,25.21728 L51.9193854,23.46528 L55.7519433,23.46528 L55.7519433,21.11328 C55.7519433,19.72128 55.9467245,18.48528 56.3378833,17.40448 C56.7298403,16.32528 57.2878403,15.41328 58.0142781,14.66848 C58.7407159,13.92528 59.6156343,13.36128 60.6366386,12.97728 C61.6576429,12.59408 62.8087674,12.40128 64.0852223,12.40128 C65.1708876,12.40128 66.1767245,12.56128 67.102733,12.88128 L67.0077373,15.01728 C66.9909734,15.33728 66.8552652,15.53008 66.6006129,15.59408 C66.3451622,15.65808 65.9851365,15.68928 65.5221322,15.68928 L64.780527,15.68928 C64.0453082,15.68928 63.3795399,15.78528 62.7808275,15.97728 C62.182115,16.16848 61.6672223,16.48128 61.2353511,16.91328 C60.8050764,17.34528 60.4729906,17.91328 60.2422867,18.61728 C60.0099863,19.32208 59.8942352,20.19408 59.8942352,21.23248 L59.8942352,23.46528 L66.9111451,23.46528 L66.9111451,26.56128 L60.0379262,26.56128 L60.0379262,47.29648 L55.7519433,47.29648 Z" id="Fill-5" fill="#C03F26"></path>
                    <g id="Group-9" transform="translate(71.047210, 22.880880)">
                        <mask id="mask-2" fill="white">
                            <use xlink:href="#path-1"></use>
                        </mask>
                        <g id="Clip-8"></g>
                        <path d="M4.37339485,0.10432 L4.37339485,15.60752 C4.37339485,17.44832 4.7956867,18.87152 5.64266524,19.87952 C6.48884549,20.88752 7.76609871,21.39152 9.47522318,21.39152 C10.7197468,21.39152 11.8932232,21.09632 12.9948541,20.50432 C14.096485,19.91232 15.1095064,19.08752 16.035515,18.03232 L16.035515,0.10432 L20.2991459,0.10432 L20.2991459,24.41552 L17.7606052,24.41552 C17.1539099,24.41552 16.7699356,24.12032 16.6110773,23.52832 L16.2757983,20.91232 C15.2220644,22.07952 14.0398069,23.02032 12.7322189,23.73312 C11.4222361,24.44352 9.92066524,24.80032 8.229103,24.80032 C6.90395279,24.80032 5.73446781,24.57952 4.72144635,24.14032 C3.70603004,23.70032 2.85665665,23.07952 2.17013305,22.27952 C1.48360944,21.47952 0.967918455,20.51232 0.625454936,19.37632 C0.282193133,18.24032 0.110562232,16.98432 0.110562232,15.60752 L0.110562232,0.10432 L4.37339485,0.10432 Z" id="Fill-7" fill="#C03F26" mask="url(#mask-2)"></path>
                    </g>
                    <mask id="mask-4" fill="white">
                        <use xlink:href="#path-3"></use>
                    </mask>
                    <g id="Clip-11"></g>
                    <polygon id="Fill-10" fill="#29708F" mask="url(#mask-4)" points="95.5848412 47.29688 103.009674 47.29688 103.009674 11.36888 95.5848412 11.36888"></polygon>
                    <path d="M135.218567,47.29648 L135.218567,22.40928 L139.816679,22.40928 C140.279683,22.40928 140.666052,22.51408 140.978181,22.72128 C141.289512,22.93008 141.508241,23.24128 141.635967,23.65808 L142.067838,25.09648 C142.546808,24.65008 143.041743,24.23248 143.551846,23.84928 C144.063546,23.46528 144.61037,23.14128 145.193117,22.87728 C145.775864,22.61328 146.406507,22.40528 147.085048,22.25328 C147.763589,22.10128 148.502001,22.02528 149.301082,22.02528 C150.657366,22.02528 151.858782,22.26128 152.903735,22.73248 C153.950284,23.20528 154.832387,23.86128 155.550842,24.70128 C156.269297,25.54128 156.81213,26.54128 157.17934,27.70128 C157.54655,28.86048 157.729357,30.12128 157.729357,31.48048 L157.729357,47.29648 L150.306121,47.29648 L150.306121,31.48048 C150.306121,30.26448 150.026722,29.31648 149.467924,28.63648 C148.908327,27.95808 148.086095,27.61728 147.001228,27.61728 C146.186979,27.61728 145.419829,27.79408 144.702173,28.14448 C143.983718,28.49648 143.296396,28.96928 142.642602,29.56048 L142.642602,47.29648 L135.218567,47.29648 Z" id="Fill-12" fill="#29708F" mask="url(#mask-4)"></path>
                    <path d="M168.825973,11.3688 L168.825973,31.504 L169.926806,31.504 C170.38981,31.504 170.745046,31.4416 170.993312,31.3136 C171.239184,31.1856 171.475476,30.952 171.699793,30.6168 L176.3929,23.6096 C176.664317,23.1936 176.98842,22.8888 177.363613,22.6968 C177.738008,22.5048 178.213785,22.4096 178.78775,22.4096 L185.589922,22.4096 L179.170926,31.2648 C178.868377,31.6808 178.536291,32.0496 178.177862,32.368 C177.818634,32.688 177.430669,32.9776 177.01636,33.232 C177.734815,33.7776 178.356677,34.496 178.884342,35.3928 L185.876506,47.2968 L179.170926,47.2968 C178.612926,47.2968 178.129167,47.2056 177.72284,47.0216 C177.315716,46.8368 176.98363,46.5136 176.728179,46.0496 L172.035072,37.2416 C171.810755,36.8416 171.579252,36.5808 171.339767,36.46 C171.101081,36.3416 170.741055,36.2808 170.262883,36.2808 L168.825973,36.2808 L168.825973,47.2968 L161.401141,47.2968 L161.401141,11.3688 L168.825973,11.3688 Z" id="Fill-13" fill="#29708F" mask="url(#mask-4)"></path>
                    <polygon id="Fill-14" fill="#29708F" mask="url(#mask-4)" points="120.218027 40.66328 118.342061 37.99928 116.507606 37.99928 116.507606 47.29688 123.930842 47.29688 123.930842 37.99928 122.093992 37.99928"></polygon>
                    <path d="M134.456127,14.2672 C134.456127,6.3872 128.082633,0 120.217947,0 C112.355655,0 105.98296,6.3872 105.98296,14.2672 C105.98296,18.5024 107.826196,22.3056 110.751106,24.9184 L120.217947,38.3664 L129.687183,24.9184 C132.612093,22.3056 134.456127,18.5024 134.456127,14.2672" id="Fill-15" fill="#83C341" mask="url(#mask-4)"></path>
                    <path d="M132.144698,14.2672 C132.144698,20.8672 126.805779,26.2176 120.218346,26.2176 C113.634106,26.2176 108.294389,20.8672 108.294389,14.2672 C108.294389,7.6672 113.634106,2.316 120.218346,2.316 C126.805779,2.316 132.144698,7.6672 132.144698,14.2672" id="Fill-16" fill="#FEFEFE" mask="url(#mask-4)"></path>
                    <path d="M125.348433,7.9336 C124.998785,8.0104 123.177103,8.3664 122.475412,8.2296 C121.773721,8.0944 120.83973,7.7192 120.696039,8.208 C120.553146,8.6968 120.601043,9.4576 121.368193,9.6232 C122.136142,9.7888 122.926442,9.8928 123.353524,10.0032 C124.013704,10.1728 123.453309,11.8456 123.077318,12.4096 C122.796322,12.828 120.46773,15.3064 120.46773,15.3064 C120.46773,15.3064 120.0167,15.8384 120.453361,16.092 C120.891618,16.3448 121.182193,16.16 121.648391,15.6872 C121.977283,15.356 122.572004,14.6832 123.073326,14.2032 C123.073326,14.2032 123.628931,13.4352 123.67603,13.4592 C123.726322,13.4832 123.225,14.3048 123.225,14.3048 C122.647043,14.9936 121.525455,16.1096 121.507094,16.3592 C121.483146,16.6856 121.897455,16.956 122.36924,16.672 C122.496167,16.5944 123.526751,15.4664 124.212476,14.7376 C124.212476,14.7376 124.595652,14.0848 124.695438,13.9688 C124.713,13.948 124.714597,13.904 124.76409,13.932 C124.811189,13.9608 124.340202,14.8144 124.340202,14.8144 C123.777412,15.508 122.912871,16.416 122.898502,16.5736 C122.875352,16.7984 123.28567,17.064 123.56906,16.904 C123.780605,16.784 124.804004,15.8232 125.321292,15.112 C125.513678,14.8472 125.714845,14.3576 125.744382,14.3832 C125.751567,14.3904 125.816227,14.408 125.799464,14.4864 C125.753163,14.6984 125.564768,15.124 125.460193,15.264 C125.046682,15.8168 124.411249,16.4 124.728966,16.6264 C125.15924,16.9328 125.510485,16.3032 126.479601,15.216 C127.447918,14.1272 128.43779,13.3544 129.006167,12.4512 C129.573747,11.5512 129.756554,11.036 130.016794,10.7512 C130.096622,10.6632 130.873352,10.1 131.818519,9.4256 C131.298837,8.2128 130.588365,7.104 129.735798,6.1216 C128.808193,7.0016 127.592408,8.092 127.28427,8.0784 C126.768579,8.0528 125.699678,7.856 125.348433,7.9336" id="Fill-17" fill="#83C341" mask="url(#mask-4)"></path>
                    <path d="M114.734539,20.68592 C115.084985,20.60912 116.906668,20.25312 117.608359,20.38992 C118.31005,20.52512 119.244839,20.90032 119.38853,20.41152 C119.531423,19.92352 119.482728,19.16272 118.716376,18.99632 C117.948427,18.82992 117.157329,18.72672 116.730247,18.61712 C116.070067,18.44672 116.63126,16.77472 117.007252,16.21072 C117.287449,15.79232 119.615243,13.31392 119.615243,13.31392 C119.615243,13.31392 120.067071,12.78112 119.63041,12.52832 C119.192153,12.27472 118.902376,12.45952 118.436179,12.93312 C118.107286,13.26432 117.511767,13.93712 117.011243,14.41632 C117.011243,14.41632 116.454839,15.18432 116.406942,15.16112 C116.357449,15.13632 116.857973,14.31552 116.857973,14.31552 C117.436728,13.62672 118.558316,12.51072 118.576676,12.26112 C118.600625,11.93392 118.186316,11.66352 117.71453,11.94832 C117.587603,12.02512 116.55702,13.15312 115.871294,13.88272 C115.871294,13.88272 115.488917,14.53472 115.38993,14.65152 C115.369973,14.67152 115.369973,14.71552 115.320479,14.68752 C115.272582,14.65952 115.744367,13.80592 115.744367,13.80592 C116.306359,13.11232 117.1709,12.20352 117.186067,12.04592 C117.208419,11.82192 116.797303,11.55552 116.513912,11.71552 C116.303166,11.83552 115.278968,12.79712 114.762479,13.50752 C114.571689,13.77232 114.368925,14.26272 114.340187,14.23632 C114.331406,14.22992 114.267543,14.21152 114.284307,14.13312 C114.330608,13.92192 114.519801,13.49552 114.624376,13.35632 C115.037887,12.80272 115.674118,12.22032 115.354805,11.99312 C114.92453,11.68752 114.573286,12.31712 113.60417,13.40432 C112.635852,14.49232 111.646779,15.26592 111.078402,16.16832 C110.510024,17.06912 110.327217,17.58432 110.067775,17.86912 C109.994333,17.94992 109.324573,18.43712 108.478393,19.04112 C108.959758,20.26912 109.620736,21.40592 110.438977,22.41072 C111.354608,21.54832 112.501741,20.52832 112.800299,20.54192 C113.31599,20.56672 114.384093,20.76432 114.734539,20.68592" id="Fill-18" fill="#83C341" mask="url(#mask-4)"></path>
                </g>
            </g>
        </g>
    </g>
</svg>